<?xml version="1.0" encoding="UTF-8"?>
<svg id="Layer_1" data-name="Layer 1" xmlns="http://www.w3.org/2000/svg" version="1.1" viewBox="0 0 1170.81 1172.03">
  <defs>
    <style>
      .cls-1 {
        fill: #fff;
        stroke-width: 0px;
      }
    </style>
  </defs>
  <path class="cls-1" d="M367.04,237.81l-22.3,14.25-93.93-147.06,22.3-14.24c8.61-5.5,22.25-8,34.24,10.77l20.59,32.24c5.08,7.95,5.95,15.16,2.11,22.28,8.22-.28,14.39,3.55,19.33,11.28l22.28,34.89c11.99,18.77,3.99,30.1-4.62,35.6ZM292.05,110.67c-3.24-5.08-6.5-5.8-9.37-3.96l-6.4,4.09,31.73,49.68,5.74-3.67c3.31-2.12,3.83-6.18.58-11.25l-22.28-34.89ZM333.24,175.15c-3.1-4.86-7.14-6.32-10.46-4.2l-5.74,3.67,33.29,52.11,6.4-4.09c2.87-1.83,3.45-5.31.2-10.39l-23.69-37.1Z"/>
  <path class="cls-1" d="M423.5,210.4c-12.99,5.62-28.59-.77-35.66-17.12l-47.22-109.18c-6.97-16.11-1.03-32.09,11.95-37.71,12.99-5.62,28.7,1.01,35.66,17.12l47.22,109.18c7.07,16.35,1.04,32.09-11.95,37.71ZM370.46,68.63c-1.87-4.33-5.97-6.55-10.3-4.68-4.57,1.98-5.52,6.38-3.65,10.71l49.09,113.51c1.98,4.57,5.73,6.66,10.3,4.68,4.33-1.87,5.62-6.14,3.64-10.71l-49.09-113.51Z"/>
  <path class="cls-1" d="M462.39,193.25l-44.8-168.64,17.47-4.64,40.16,151.17,22.28-5.92,4.64,17.47-39.76,10.56Z"/>
  <path class="cls-1" d="M515.45,180.36L493.97,7.2l41.86-5.19,2.22,17.94-23.92,2.97,7.1,57.2,16.9-2.1,2.23,17.94-16.9,2.1,7.71,62.14,23.92-2.97,2.22,17.94-41.86,5.19Z"/>
  <path class="cls-1" d="M603.67,19.42l-2.52,155.61-18.07-.29,2.52-155.61-16.24-.26.3-18.86,49.77.81-.3,18.86-15.46-.25Z"/>
  <path class="cls-1" d="M654.76,180.5l3.1-33.44-14.51-2.15-7.77,32.75-16.07-2.38L662.46,5.24l19.44,2.88-8.47,175.14-18.66-2.77ZM665.97,49.46l-18.3,77.01,11.66,1.73,6.63-78.74Z"/>
  <path class="cls-1" d="M706.07,194.88c-15.53-4.77-21.4-18.64-15.71-37.17l6.54-21.29,15.78,4.85-7.16,23.29c-2.08,6.76-.79,12.37,4.72,14.06,6.01,1.85,10.07-1.56,12.31-8.82,5.16-16.78,4.79-32.52,1.95-54.49-2.61-19.17-5.44-48.27-.13-65.55,5.93-19.28,17.93-30.67,35.71-25.2,13.77,4.23,19.3,17.45,13.45,36.48l-7.16,23.29-15.53-4.77,7.54-24.54c2.31-7.51.88-11.79-3.62-13.17-5.01-1.54-9.52.64-11.67,7.65-6.39,20.79-4.39,32.09-1.57,56.81,2.88,23.63,4.58,46.63-.81,64.16-8.01,26.04-24.63,27.51-34.65,24.43Z"/>
  <path class="cls-1" d="M796.05,232.56l-23.25-13.69,88.54-150.36,23.25,13.69c11.96,7.05,16.42,19.1,4.86,38.74l-57.17,97.08c-11.57,19.64-24.27,21.59-36.23,14.54ZM874.54,110.64c3.99-6.77,4-10.41-.29-12.94l-6.55-3.86-69.8,118.53,6.55,3.86c4.29,2.53,7.47.75,11.46-6.03l58.63-99.56Z"/>
  <path class="cls-1" d="M830.29,255.25l106.93-137.89,14.49,11.24-106.93,137.89-14.49-11.24Z"/>
  <path class="cls-1" d="M873.94,295.63c-11.53-11.45-10.28-26.46,3.38-40.21l15.69-15.8,11.71,11.63-17.17,17.29c-4.98,5.02-6.45,10.58-2.36,14.64,4.46,4.43,9.64,3.3,15-2.09,12.37-12.46,19.36-26.56,27.07-47.33,6.61-18.18,17.63-45.26,30.37-58.09,14.22-14.31,30.13-18.82,43.33-5.71,10.22,10.15,8.98,24.42-5.05,38.55l-17.17,17.29-11.53-11.45,18.09-18.22c5.54-5.58,6.26-10.03,2.92-13.35-3.72-3.69-8.72-3.86-13.89,1.34-15.32,15.43-18.8,26.37-27.8,49.56-8.45,22.26-17.63,43.41-30.56,56.42-19.2,19.33-34.6,12.9-42.03,5.52Z"/>
  <path class="cls-1" d="M977.22,301.24l-4.82-6.53-58.59,43.27-10.74-14.54,140.37-103.66,15.56,21.08c6.07,8.22,9.64,21.87-8.28,35.1l-37.52,27.7c-17.92,13.23-29.91,5.8-35.98-2.42ZM1040.4,261.1c4.85-3.58,5.5-6.67,3.48-9.41l-4.67-6.32-52.9,39.07,4.67,6.32c2.02,2.74,5.38,2.87,10.01-.55l39.41-29.1Z"/>
  <path class="cls-1" d="M949.18,397.97c-6.51-12.56-1.23-28.58,14.59-36.77l105.62-54.71c15.59-8.07,31.95-3.27,38.45,9.3,6.51,12.56,1,28.7-14.59,36.77l-105.62,54.71c-15.82,8.19-31.94,3.27-38.45-9.3ZM1086.91,335.19c4.19-2.17,6.12-6.42,3.95-10.6-2.29-4.42-6.75-5.06-10.94-2.89l-109.81,56.88c-4.42,2.29-6.24,6.18-3.95,10.6,2.17,4.19,6.52,5.18,10.94,2.89l109.81-56.88Z"/>
  <path class="cls-1" d="M981.39,472.81l77.67-46.08,22.59-11.92-107.78,34.55-4.88-15.22,166.17-53.26,5.6,17.46-78.71,42.84-23,11.5,108.03-34.63,4.88,15.22-166.16,53.26-4.4-13.72Z"/>
  <path class="cls-1" d="M988.89,504.1l171.78-30.7,3.23,18.05-171.77,30.7-3.23-18.05Z"/>
  <path class="cls-1" d="M996.51,567.03l-1.36-26.43,174.27-8.98,1.36,26.43c.53,10.21-4.05,23.3-26.29,24.44l-38.2,1.97c-9.42.49-16.12-2.32-20.41-9.18-3.82,7.28-10.2,10.76-19.36,11.23l-41.34,2.13c-22.24,1.15-28.13-11.4-28.66-21.61ZM1067.69,568.6c5.76-.3,9.02-3.09,8.82-7.01l-.35-6.8-61.75,3.18.39,7.59c.18,3.4,2.91,5.62,8.93,5.31l43.96-2.27ZM1144.09,564.66c6.02-.31,8.25-2.79,8.08-6.19l-.39-7.59-58.87,3.03.35,6.8c.2,3.92,3.48,6.38,9.49,6.07l41.34-2.13Z"/>
  <path class="cls-1" d="M996.85,606.1l173.76,16.06-1.66,18-155.76-14.39-2.12,22.96-18-1.66,3.79-40.96Z"/>
  <path class="cls-1" d="M990.68,660.36l169.98,39.45-9.54,41.09-17.61-4.09,5.45-23.48-56.15-13.03-3.85,16.59-17.61-4.09,3.85-16.59-61-14.16-5.45,23.48-17.61-4.09,9.54-41.09Z"/>
  <path class="cls-1" d="M966.84,734.95c5.93-15.12,20.2-19.95,38.25-12.87l20.74,8.12-6.02,15.37-22.69-8.89c-6.59-2.58-12.27-1.71-14.38,3.65-2.29,5.85.8,10.16,7.88,12.93,16.34,6.4,32.06,7.22,54.19,6.04,19.31-1.16,48.54-1.81,65.38,4.79,18.78,7.36,29.24,20.18,22.45,37.5-5.26,13.42-18.85,17.94-37.39,10.68l-22.69-8.89,5.93-15.12,23.91,9.37c7.32,2.87,11.69,1.77,13.41-2.62,1.91-4.88.08-9.54-6.75-12.21-20.25-7.93-31.67-6.78-56.53-5.83-23.78,1.09-46.85,1.06-63.92-5.63-25.37-9.94-25.59-26.62-21.76-36.38Z"/>
  <path class="cls-1" d="M962.4,879.81c7.26-9.29,18.57-11.43,28.89-3.37,10.12,7.9,10.79,19.39,3.53,28.68-7.1,9.09-18.41,11.22-28.52,3.32-10.32-8.06-10.99-19.55-3.9-28.64Z"/>
  <path class="cls-1" d="M821.42,922.89l21.58-15.32,101.01,142.27-21.58,15.32c-8.33,5.92-21.83,9.08-34.72-9.08l-22.14-31.19c-5.46-7.69-6.69-14.85-3.2-22.15-8.19.68-14.55-2.84-19.86-10.32l-23.96-33.75c-12.89-18.16-5.46-29.86,2.87-35.78ZM858.25,983.81c3.34,4.7,7.45,5.96,10.65,3.69l5.55-3.94-35.79-50.41-6.2,4.4c-2.78,1.97-3.18,5.47.3,10.39l25.48,35.89ZM902.54,1046.19c3.49,4.91,6.78,5.47,9.55,3.5l6.2-4.4-34.12-48.07-5.55,3.94c-3.21,2.27-3.52,6.35-.03,11.27l23.96,33.75Z"/>
  <path class="cls-1" d="M766.35,953.05c12.69-6.25,28.59-.64,36.46,15.34l52.53,106.72c7.75,15.75,2.61,32-10.08,38.25s-28.71.41-36.46-15.34l-52.53-106.72c-7.87-15.98-2.61-32,10.08-38.25ZM826.29,1092.04c2.08,4.23,6.29,6.25,10.52,4.17,4.46-2.2,5.2-6.65,3.11-10.88l-54.61-110.95c-2.2-4.47-6.05-6.36-10.52-4.17-4.23,2.08-5.31,6.41-3.12,10.88l54.62,110.95Z"/>
  <path class="cls-1" d="M728.36,972.09l53.08,166.23-17.22,5.5-47.58-149-21.96,7.01-5.5-17.22,39.19-12.51Z"/>
  <path class="cls-1" d="M676,987.59l29.96,171.9-41.55,7.24-3.1-17.81,23.75-4.14-9.9-56.78-16.78,2.92-3.1-17.81,16.78-2.92-10.75-61.69-23.74,4.14-3.11-17.81,41.55-7.24Z"/>
  <path class="cls-1" d="M596.05,1152.65l-5.33-155.53,18.07-.62,5.33,155.53,16.23-.56.64,18.85-49.75,1.71-.64-18.85,15.45-.53Z"/>
  <path class="cls-1" d="M536.86,994.24l-1.46,33.55,14.6,1.44,6.15-33.09,16.17,1.59-34.56,171.93-19.55-1.92-.12-175.35,18.77,1.85ZM532.08,1125.66l14.51-77.82-11.73-1.16-2.77,78.97Z"/>
  <path class="cls-1" d="M484.88,982.39c15.74,4,22.3,17.56,17.52,36.35l-5.48,21.58-16-4.07,6-23.62c1.74-6.86.18-12.39-5.41-13.81-6.09-1.55-9.98,2.06-11.86,9.42-4.32,17.01-3.18,32.71.74,54.52,3.55,19.01,7.82,47.94,3.36,65.46-4.97,19.55-16.39,31.52-34.42,26.93-13.96-3.55-20.14-16.47-15.24-35.77l6-23.61,15.74,4-6.33,24.88c-1.94,7.62-.3,11.82,4.27,12.98,5.08,1.29,9.47-1.11,11.28-8.22,5.36-21.08,2.79-32.27-1.24-56.81-4.04-23.46-6.87-46.35-2.35-64.12,6.71-26.41,23.24-28.69,33.4-26.11Z"/>
  <path class="cls-1" d="M393.18,949.21l23.9,12.53-81.04,154.53-23.9-12.53c-12.3-6.45-17.34-18.27-6.76-38.45l52.33-99.77c10.59-20.19,23.18-22.75,35.47-16.31ZM320.78,1074.84c-3.65,6.96-3.49,10.6.92,12.91l6.73,3.53,63.89-121.81-6.73-3.53c-4.41-2.31-7.49-.38-11.14,6.58l-53.67,102.32Z"/>
  <path class="cls-1" d="M357.88,928.23l-100.06,142.95-15.03-10.52,100.06-142.95,15.03,10.52Z"/>
  <path class="cls-1" d="M312.29,890.02c12.07,10.87,11.56,25.92-1.42,40.33l-14.9,16.55-12.27-11.05,16.31-18.1c4.73-5.26,5.92-10.88,1.64-14.74-4.67-4.21-9.79-2.83-14.88,2.82-11.75,13.04-18.04,27.47-24.73,48.6-5.71,18.48-15.4,46.07-27.5,59.5-13.5,14.99-29.18,20.26-43,7.81-10.71-9.64-10.16-23.96,3.17-38.75l16.31-18.1,12.07,10.87-17.18,19.08c-5.26,5.84-5.77,10.32-2.26,13.47,3.89,3.51,8.9,3.43,13.81-2.02,14.55-16.16,17.5-27.26,25.35-50.86,7.35-22.64,15.5-44.22,27.77-57.85,18.23-20.25,33.93-14.57,41.71-7.56Z"/>
  <path class="cls-1" d="M208.87,889.45l5.14,6.29,56.41-46.08,11.44,14-135.14,110.38-16.57-20.29c-6.46-7.91-10.69-21.37,6.55-35.46l36.12-29.5c17.25-14.09,29.59-7.26,36.06.66ZM147.72,932.63c-4.67,3.81-5.17,6.93-3.01,9.56l4.97,6.09,50.93-41.6-4.97-6.09c-2.15-2.64-5.51-2.6-9.97,1.04l-37.95,30.99Z"/>
  <path class="cls-1" d="M232.14,791.47c7.12,12.23,2.63,28.48-12.77,37.44l-102.8,59.83c-15.17,8.83-31.74,4.83-38.86-7.4s-2.4-28.61,12.77-37.44l102.8-59.83c15.4-8.96,31.74-4.83,38.86,7.4ZM97.66,860.94c-4.08,2.37-5.8,6.71-3.42,10.78,2.5,4.3,6.99,4.72,11.07,2.35l106.88-62.2c4.3-2.5,5.93-6.48,3.42-10.78-2.37-4.08-6.77-4.85-11.07-2.35l-106.88,62.2Z"/>
  <path class="cls-1" d="M196.27,718.3l-75.3,49.86-21.98,13.02,105.94-39.83,5.62,14.96-163.33,61.4-6.45-17.17,76.5-46.67,22.41-12.62-106.19,39.92-5.62-14.96,163.33-61.4,5.07,13.49Z"/>
  <path class="cls-1" d="M187.24,687.42l-170.05,39.12-4.11-17.87,170.05-39.13,4.11,17.87Z"/>
  <path class="cls-1" d="M176.54,624.97l2.65,26.33-173.62,17.47-2.65-26.33c-1.02-10.17,2.91-23.46,25.06-25.69l38.06-3.83c9.38-.94,16.22,1.53,20.83,8.17,3.46-7.46,9.67-11.24,18.79-12.16l41.19-4.14c22.16-2.23,28.66,10.02,29.68,20.19ZM29.26,634.53c-6,.6-8.11,3.19-7.77,6.57l.76,7.56,58.65-5.9-.68-6.78c-.39-3.91-3.78-6.2-9.78-5.6l-41.19,4.14ZM105.38,626.87c-5.74.58-8.86,3.53-8.47,7.44l.68,6.78,61.52-6.19-.76-7.56c-.34-3.39-3.18-5.47-9.18-4.87l-43.79,4.41Z"/>
  <path class="cls-1" d="M174.33,586.07L0,578.54l.78-18.06,156.26,6.75,1-23.03,18.06.78-1.78,41.09Z"/>
  <path class="cls-1" d="M177.84,531.43L6.13,500.4l7.5-41.51,17.79,3.21-4.29,23.72,56.72,10.25,3.03-16.76,17.79,3.21-3.03,16.76,61.62,11.13,4.29-23.72,17.79,3.21-7.5,41.51Z"/>
  <path class="cls-1" d="M197.97,455.77c-5.17,15.4-19.19,20.92-37.56,14.75l-21.11-7.09,5.25-15.65,23.1,7.76c6.71,2.25,12.34,1.1,14.18-4.36,2-5.96-1.3-10.11-8.51-12.53-16.64-5.59-32.38-5.62-54.43-3.35-19.22,2.11-48.39,4.2-65.53-1.55-19.12-6.42-30.2-18.71-24.28-36.34,4.59-13.66,17.94-18.85,36.81-12.51l23.1,7.76-5.17,15.4-24.34-8.17c-7.45-2.5-11.76-1.19-13.26,3.28-1.67,4.97.39,9.53,7.35,11.86,20.62,6.92,31.97,5.21,56.75,3.03,23.7-2.27,46.74-3.38,64.12,2.46,25.83,8.67,26.87,25.33,23.54,35.26Z"/>
  <path class="cls-1" d="M195.29,310.87c-6.79,9.64-17.98,12.32-28.69,4.78-10.49-7.4-11.72-18.84-4.93-28.48,6.64-9.42,17.83-12.11,28.33-4.71,10.71,7.55,11.93,18.99,5.29,28.42Z"/>
</svg>